<svg xmlns="http://www.w3.org/2000/svg" xmlns:xlink="http://www.w3.org/1999/xlink" version="1.1" x="0px" y="0px" viewBox="0 0 100 100" enable-background="new 0 0 100 100" xml:space="preserve"><path fill="#000000" d="M97.117,65.924c0,0-0.672-1.689-1.401-3.547l-1.213-3.047c-0.844-2.094-2.682-3.346-3.156-3.643  L58.871,36.413l0.416-15.196c0-4.444-3.649-15.413-9.17-15.413c-5.515,0-9.171,10.968-9.171,15.435l0.449,16.312L8.875,55.77  c-1.842,1.027-2.528,2.168-2.763,2.672l-0.112,0.27v0.012l-2.706,6.822c-0.56,1.559-1.437,5.154,3.031,3.664  c0.033,0,0.044,0,0.054-0.012l35.576-11.811l0.381,13.764l-9.409,10.148h0.012l-0.012,0.018l-0.482,0.504  c-0.527,0.648-1.325,1.875-1.325,3.43c0,2.363,1.438,2.129,2.932,1.678l0,0l10.743-3.182c0.739,0.836,1.683,1.438,2.741,1.818v5.174  c0,1.414,1.154,2.582,2.58,2.582c1.435,0,2.579-1.168,2.579-2.582v-5.174c1.059-0.383,1.985-0.982,2.729-1.805l11.263,3.33  c0.906,0.254,2.38,0.398,2.38-1.691c0-2.127-1.572-3.832-1.572-3.832l-9.597-10.359l0.393-13.838l34.889,11.6  C97.937,70.549,97.117,65.924,97.117,65.924z M7.703,66.16c-2.526,1.139-2.526-0.111-2.211-1.1l2.156-5.439  c0.257-0.527,0.988-1.58,2.999-2.701l29.2-16.361c0.022-0.018,1.617-0.69,1.671,1.391v0.018l0.191,6.831  c0.057,1.964-1.335,2.544-1.481,2.599L7.703,66.16L7.703,66.16z M19.3,62.945l20.881-9.477v0.012c0,0,1.659,0.012,1.718,1.953  L19.3,62.945z M50.115,7.673c2.895,0,5.645,5.484,6.782,9.945c-1.125-2.212-3.818-4.266-6.782-4.266  c-2.952,0-5.647,2.036-6.769,4.249C44.467,13.145,47.218,7.673,50.115,7.673z M55.514,19.33c-0.259-0.085-0.563-0.223-0.832-0.337  c-1.164-0.498-2.759-1.171-4.567-1.171c-1.797,0-3.402,0.673-4.581,1.171c-0.258,0.125-0.584,0.254-0.842,0.35  c0.27-1.532,2.526-4.114,5.422-4.114C52.957,15.229,55.166,17.687,55.514,19.33z M34.477,84.863h-0.013  c-2.795,0.822-0.56-1.859-0.56-1.859l0,0l7.376-7.953c0,0,0.808-0.371,1.19,0.787l0.035,1.021c0,2.049,0.403,3.842,1.154,5.293  L34.477,84.863z M50.845,90.738c0,0.387-0.325,0.713-0.728,0.713c-0.392,0-0.718-0.324-0.718-0.713v-4.781  c0.235,0.031,0.462,0.084,0.718,0.084c0.255,0,0.471-0.053,0.728-0.084V90.738z M50.845,84.111  c-0.236,0.035-0.471,0.055-0.728,0.055c-0.258,0-0.483-0.02-0.718-0.055v-7.572c0-0.408,0.327-0.732,0.718-0.732  c0.402,0,0.728,0.324,0.728,0.732V84.111z M52.696,83.596v-7.057c0-1.439-1.145-2.604-2.579-2.604c-1.426,0-2.58,1.164-2.58,2.604  v7.057c-2.888-1.461-3.167-5.373-3.167-6.764l-1.563-55.616c0-0.314,0.022-0.661,0.066-1.014c0.056,0.229,0.124,0.422,0.258,0.59  c0.583,0.763,1.673,0.533,3.132-0.073c1.077-0.465,2.424-1.02,3.85-1.02c1.437,0,2.773,0.555,3.851,1.02  c0.796,0.337,1.423,0.606,1.983,0.606c0.595,0,1.228-0.353,1.403-1.206c0.035,0.381,0.079,0.746,0.079,1.07l-1.561,55.669  C55.874,78.234,55.591,82.135,52.696,83.596z M57.726,76.877l0.045-1.234v0.012c0,0,0.258-1.553,1.472-0.242  c0.012,0,0.012,0,0.012,0.014l6.733,7.27c0.067,0.076,2.874,3.096-0.561,2.086h-0.012l-8.848-2.625  C57.321,80.715,57.726,78.941,57.726,76.877z M58.331,55.434c0.066-2.418,1.572-2.045,1.572-2.045l21.048,9.557L58.331,55.434z   M93.144,66.43c-0.011-0.018-0.011-0.018-0.011-0.018L59.556,51.19c-1.059-0.483-1.033-2.52-1.033-2.52s0.125-4.188,0.202-6.906  l0.033-1.065c0.044-1.774,0.956-1.562,1.494-1.298l0.35,0.22h0.012h-0.012l30.13,17.867c0.013,0.018,1.447,1.039,2.134,2.768  c0.01,0.043,0.042,0.113,0.077,0.18l2.056,5.191C95.018,65.68,95.458,67.469,93.144,66.43z"></path></svg>