<svg xmlns:dc="http://purl.org/dc/elements/1.1/" xmlns:cc="http://creativecommons.org/ns#" xmlns:rdf="http://www.w3.org/1999/02/22-rdf-syntax-ns#" xmlns:svg="http://www.w3.org/2000/svg" xmlns="http://www.w3.org/2000/svg" xmlns:sodipodi="http://sodipodi.sourceforge.net/DTD/sodipodi-0.dtd" xmlns:inkscape="http://www.inkscape.org/namespaces/inkscape" version="1.1" x="0px" y="0px" viewBox="0 0 100 100"><g transform="translate(0,-952.36218)"><path style="text-indent:0;text-transform:none;direction:ltr;block-progression:tb;baseline-shift:baseline;color:#000000;enable-background:accumulate;" d="m 49.78125,959.38502 a 1.0001,0.99998348 0 0 0 -0.34375,0.15623 c -1.632983,1.08853 -3.409547,2.83265 -4.84375,4.62446 C 43.159547,965.95752 42,967.66513 42,969.38385 l 0,22.3724 -30.46875,15.71695 A 1.0001,0.99998348 0 0 0 11,1008.3793 l 0,13.9984 a 1.0001,0.99998348 0 0 0 1.25,0.9687 l 29.75,-7.6867 0,12.0299 -11.375,4.7494 A 1.0001,0.99998348 0 0 0 30,1033.3764 l 0,10.9987 a 1.0001,0.99998348 0 0 0 1.3125,0.9374 l 14.8125,-4.9369 3.875,-0.031 3.875,0.031 14.8125,4.9369 A 1.0001,0.99998348 0 0 0 70,1044.3751 l 0,-10.9987 a 1.0001,0.99998348 0 0 0 -0.625,-0.9374 L 58,1027.6896 l 0,-12.0299 29.75,7.6867 a 1.0001,0.99998348 0 0 0 1.25,-0.9687 l 0,-13.9984 a 1.0001,0.99998348 0 0 0 -0.53125,-0.9061 L 58,991.75625 l 0,-22.3724 c 0,-1.71872 -1.159547,-3.42633 -2.59375,-5.21814 -1.434203,-1.79181 -3.210767,-3.53593 -4.84375,-4.62446 a 1.0001,0.99998348 0 0 0 -0.78125,-0.15623 z M 50,961.7285 c 1.260438,0.94716 2.694836,2.25167 3.84375,3.68707 C 55.159547,967.05945 56,968.84724 56,969.38385 l 0,22.99732 a 1.0001,0.99998348 0 0 0 0.53125,0.8749 L 87,1008.973 l 0,12.1236 -29.75,-7.6867 a 1.0001,0.99998348 0 0 0 -1.25,0.9687 l 0,13.9984 a 1.0001,0.99998348 0 0 0 0.625,0.9061 l 11.375,4.7494 0,8.9366 -13.6875,-4.5621 A 1.0001,0.99998348 0 0 0 54,1038.3758 l -4,-0.031 -4,0.031 a 1.0001,0.99998348 0 0 0 -0.3125,0.031 L 32,1042.9691 l 0,-8.9366 11.375,-4.7494 A 1.0001,0.99998348 0 0 0 44,1028.377 l 0,-13.9984 a 1.0001,0.99998348 0 0 0 -1.25,-0.9687 L 13,1021.0966 13,1008.973 43.46875,993.25607 A 1.0001,0.99998348 0 0 0 44,992.38117 l 0,-22.99732 c 0,-0.53661 0.840453,-2.3244 2.15625,-3.96828 1.148914,-1.4354 2.583312,-2.73991 3.84375,-3.68707 z" fill="#000000" fill-opacity="1" stroke="none" marker="none" visibility="visible" display="inline" overflow="visible"></path></g></svg>