<svg xmlns="http://www.w3.org/2000/svg" xmlns:xlink="http://www.w3.org/1999/xlink" viewBox="0 0 100 100" version="1.1" x="0px" y="0px"><g stroke="none" stroke-width="1" fill="none" fill-rule="evenodd"><g fill="#FFF"><path d="M85.99638,6 C90.4166573,6 94,9.58618247 94,14.00362 L94,85.99638 C94,90.4166573 90.4138175,94 85.99638,94 L14.00362,94 C9.58334272,94 6,90.4138175 6,85.99638 L6,14.00362 C6,9.58334272 9.58618247,6 14.00362,6 L85.99638,6 L85.99638,6 Z M14,14 L86,14 L86,86 L14,86 L14,14 L14,14 Z M75.2184073,53.1767767 L53,53 L53.1767767,75.2184073 L61.2495791,75.2773328 L61.1733225,66.8301767 L74.1126984,79.7695526 L79.7695526,74.1126984 L66.8301767,61.1733225 L75.2773328,61.2495791 L75.2184073,53.1767767 L75.2184073,53.1767767 Z M24.5511454,46.5927759 L46.7695526,46.7695526 L46.5927759,24.5511454 L38.5199735,24.4922198 L38.5962301,32.9393759 L25.6568542,20 L20,25.6568542 L32.9393759,38.5962301 L24.4922198,38.5199735 L24.5511454,46.5927759 L24.5511454,46.5927759 Z"></path></g></g></svg>