<svg id="colony_logo" xmlns="http://www.w3.org/2000/svg" viewBox="0 0 957.31 481.44"><path fill="#7cd6df" d="M465.5 266.41a25.69 25.69 0 1 0-25.69-25.69 25.69 25.69 0 0 0 25.69 25.69M650.65 205.09a35.63 35.63 0 1 0 35.64 35.63 35.63 35.63 0 0 0-35.64-35.63M465.5 95.27a36.07 36.07 0 1 0 36.07 36.07 36.07 36.07 0 0 0-36.07-36.07M465.5 51.38a25.69 25.69 0 1 0-25.69-25.69 25.69 25.69 0 0 0 25.69 25.72M465.5 430.06a25.69 25.69 0 1 0 25.69 25.69A25.69 25.69 0 0 0 465.5 430M370.75 217.63a31.54 31.54 0 1 0-31.54-31.54 31.54 31.54 0 0 0 31.54 31.54M370.75 91.72a11.81 11.81 0 1 0-11.81-11.81 11.81 11.81 0 0 0 11.81 11.81M279.26 107.65a25.69 25.69 0 1 0 25.69 25.69 25.69 25.69 0 0 0-25.69-25.69M279.26 321.25a25.69 25.69 0 1 0 25.69 25.69 25.69 25.69 0 0 0-25.69-25.69M650.65 321.25a25.69 25.69 0 1 0 25.69 25.69 25.69 25.69 0 0 0-25.69-25.69M289.23 240.72a10 10 0 1 0-10 10 10 10 0 0 0 10-10" transform="translate(.01)"/><path d="M560.19 203.48a17.39 17.39 0 1 0-17.39-17.39 17.39 17.39 0 0 0 17.39 17.39" transform="translate(.01)"/><path fill="#7cd6df" d="M650.65 154.72a21.4 21.4 0 1 0-21.4-21.4 21.4 21.4 0 0 0 21.4 21.4M560.19 387.16a14.31 14.31 0 1 0 14.31 14.31 14.32 14.32 0 0 0-14.31-14.31M465.5 324.55a25.56 25.56 0 1 0 25.56 25.56 25.58 25.58 0 0 0-25.56-25.56M370.75 266.41a29.16 29.16 0 1 0 29.15 29.17 29.19 29.19 0 0 0-29.15-29.16" transform="translate(.01)"/><path d="M200 275.5a32.32 32.32 0 1 0 32.49-32.15A32.34 32.34 0 0 0 200 275.5m89.19 0a56.72 56.72 0 1 1-56.71-56.87c31.18 0 56.71 25.69 56.71 56.87M527.32 275.5a32.32 32.32 0 1 0 32.49-32.15 32.34 32.34 0 0 0-32.48 32.15m89.19 0a56.71 56.71 0 1 1-56.71-56.87c31.18 0 56.71 25.69 56.71 56.87" transform="translate(.01)"/><path d="M779.52 220.57H763.4v67.05l-55.58-67.05h-26.66v97.42l10.53 12.44h16.13v-67.22l55.58 67.22h26.66v-97.42l-10.54-12.44z"/><path d="M59.46 242.54c13.89 0 24.08 6.63 29.24 16.64h22.46V246.1c-9.86-16.48-28.28-27.47-51.71-27.47C25 218.63 0 244.15 0 274.69c0 32.47 25 57.68 59.46 57.68 23.26 0 41.83-12.12 51.69-28.6v-12.86H88.48l-.1-.06c-5.33 9.69-15.35 16.64-28.92 16.64-19.23 0-32.64-15.35-32.64-32.8 0-18.09 13.41-32.16 32.64-32.16" transform="translate(.01)"/><path d="M426.94 305.87h-46.15v-85.3h-12.86L354.3 232.1V330.43H438.47V319.5l-11.53-13.63zM883.06 318.2l10.63 12.54h16.18v-41.75l34.51-50 12.93-18.73h-31.03l-18.93 28.92-10.64 16.25-1.5-2.25-28.56-42.92h-30.7l12.92 18.86 34.19 49.87v29.21z"/></svg>