<svg xmlns="http://www.w3.org/2000/svg" viewBox="0 0 502.93 704.89"><defs><style>.cls-1{fill:#5c50ca;}</style></defs><title>Asset 1</title><g id="Layer_2" data-name="Layer 2"><g id="Layer_1-2" data-name="Layer 1"><path class="cls-1" d="M433.66,537.42a4.54,4.54,0,0,0-3.84-4.38l-.09,0H429a13.23,13.23,0,0,0-1.59,0,7.55,7.55,0,0,0-.83.05,69.63,69.63,0,0,0-18.49,3,45.56,45.56,0,0,0-18.44,12v-9.91s-.05-.07-.07-.07a4.52,4.52,0,0,0-4.5-4.46H368a4.55,4.55,0,0,0-4.53,4.49h0V657.27A4.54,4.54,0,0,0,368,661.8h17a4.54,4.54,0,0,0,4.55-4.53v-62c0-13.26,3.59-20.79,10.71-26.91,6.51-5.58,16.1-11.56,28.59-12.55a2.16,2.16,0,0,0,.33,0,4.52,4.52,0,0,0,4.39-4.51V537.42Z"/><path class="cls-1" d="M212.15,546.07c-11-8.26-25.88-12.44-44.24-12.44H132a4.52,4.52,0,0,0-4.52,4.53v162.2a4.53,4.53,0,0,0,4.52,4.53h17.34a4.55,4.55,0,0,0,4.53-4.53c0-.11,0-.2,0-.3V665.54a4.52,4.52,0,0,1,3.89-4.47h10.19c18.06,0,32.86-4.42,44-13.15,11.85-9.1,17.87-21.77,17.87-37.68v-26C229.81,567.84,223.86,555,212.15,546.07Zm-9.41,64.17c0,8.68-2.94,15.27-8.72,19.58s-14.79,6.59-26.6,6.59h-9.14a4.53,4.53,0,0,1-4.45-4.53v-69.3a4.52,4.52,0,0,1,4.53-4.52h9.06c11.81,0,20.75,2.22,26.6,6.58s8.72,10.9,8.72,19.58Z"/><path class="cls-1" d="M443.56,627.8c0,12.16,2.42,21.24,7.18,27,4.93,5.77,13.16,8.69,24.4,8.69H497.2a4.52,4.52,0,0,0,4.53-4.52s0-.07,0-.11V643.68s0-.08,0-.11a4.52,4.52,0,0,0-4.53-4.52H476.1c-2.74,0-4.57-.82-5.56-2.48-.57-1.17-.86-3.4-.86-6.6V561.56a4.53,4.53,0,0,1,3.9-4.47h24.81s0,0,.05,0a4.53,4.53,0,0,0,4.48-4.52V537a4.53,4.53,0,0,0-4.51-4.53H473.58a4.53,4.53,0,0,1-3.9-4.48V493.5l0,0a4.52,4.52,0,0,0-4.52-4.51h-17a4.55,4.55,0,0,0-4.54,4.52V627.8Z"/><path class="cls-1" d="M294.62,663.76a57.24,57.24,0,0,1-57.18-57.18v-18.8a57.18,57.18,0,1,1,114.35,0v18.8A57.24,57.24,0,0,1,294.62,663.76Zm0-106.31a30.37,30.37,0,0,0-30.33,30.33v18.8a30.33,30.33,0,0,0,60.66,0v-18.8A30.37,30.37,0,0,0,294.62,557.45Z"/><path class="cls-1" d="M0,538.15a4.54,4.54,0,0,1,4.53-4.52H22.32a4.52,4.52,0,0,1,4.53,4.52v68.43a30.33,30.33,0,1,0,60.66,0V538.15A4.53,4.53,0,0,1,92,533.63h17.79a4.55,4.55,0,0,1,4.55,4.52v68.43A57.19,57.19,0,0,1,0,606.58Z"/><path class="cls-1" d="M499.71,362.05,268,8.36c-7.31-11.15-25.73-11.15-33,0L3.23,362.05A19.75,19.75,0,0,0,14.74,392l231.68,87.39a20,20,0,0,0,10,0L488.18,392a19.75,19.75,0,0,0,11.53-29.92ZM251.45,163.84A78.13,78.13,0,1,1,173.31,242,78.2,78.2,0,0,1,251.45,163.84Zm0,236.67C173.67,400.51,91,378,91,336.2c0-25.13,29.87-43.29,70.58-53.79a99.12,99.12,0,0,0,9.74,16.88c-39.8,9.33-62.43,24.66-62.43,36.91,0,5.45,4.55,11.52,13.08,17.4a15.31,15.31,0,0,1,2.55-4.58c8.71-11.2,35.12-20.41,72.36-25a98.29,98.29,0,0,0,109.2,0c37.1,4.57,63.47,13.73,72.28,24.87a15,15,0,0,1,2.64,4.72c8.54-5.88,13.08-12,13.08-17.41,0-12.25-22.64-27.58-62.43-36.92a97,97,0,0,0,9.73-16.88c40.73,10.5,70.6,28.67,70.6,53.8C412,378,329.27,400.51,251.45,400.51Z"/></g></g></svg>