<svg xmlns="http://www.w3.org/2000/svg" xmlns:xlink="http://www.w3.org/1999/xlink" xml:space="preserve" version="1.1" style="shape-rendering:geometricPrecision;text-rendering:geometricPrecision;image-rendering:optimizeQuality;" viewBox="0 0 847 1058.75" x="0px" y="0px" fill-rule="evenodd" clip-rule="evenodd"><defs><style type="text/css">
   
    .fil0 {fill:black;fill-rule:nonzero}
   
  </style></defs><g><path class="fil0" d="M364 355l118 0 10 0 0 9 0 118 0 10 -10 0 -118 0 -9 0 0 -10 0 -118 0 -9 9 0zm109 18l-100 0 0 100 100 0 0 -100z"/><path class="fil0" d="M246 473l118 0 9 0 0 9 0 119 0 9 -9 0 -118 0 -9 0 0 -9 0 -119 0 -9 9 0zm109 19l-100 0 0 100 100 0 0 -100z"/><path class="fil0" d="M9 710l119 0 9 0 0 9 0 118 0 10 -9 0 -119 0 -9 0 0 -10 0 -118 0 -9 9 0zm109 18l-99 0 0 100 99 0 0 -100z"/><path class="fil0" d="M482 237l119 0 9 0 0 9 0 118 0 9 -9 0 -119 0 -9 0 0 -9 0 -118 0 -9 9 0zm110 18l-100 0 0 100 100 0 0 -100z"/><path class="fil0" d="M719 0l118 0 10 0 0 9 0 119 0 9 -10 0 -118 0 -9 0 0 -9 0 -119 0 -9 9 0zm109 19l-100 0 0 99 100 0 0 -99z"/><path class="fil0" d="M246 237l118 0 9 0 0 9 0 118 0 9 -9 0 -118 0 -9 0 0 -9 0 -118 0 -9 9 0zm109 18l-100 0 0 100 100 0 0 -100z"/><path class="fil0" d="M9 0l119 0 9 0 0 9 0 119 0 9 -9 0 -119 0 -9 0 0 -9 0 -119 0 -9 9 0zm109 19l-99 0 0 99 99 0 0 -99z"/><path class="fil0" d="M482 473l119 0 9 0 0 9 0 119 0 9 -9 0 -119 0 -9 0 0 -9 0 -119 0 -9 9 0zm110 19l-100 0 0 100 100 0 0 -100z"/><path class="fil0" d="M719 710l118 0 10 0 0 9 0 118 0 10 -10 0 -118 0 -9 0 0 -10 0 -118 0 -9 9 0zm109 18l-100 0 0 100 100 0 0 -100z"/></g><text x="0" y="862" fill="#000000" font-size="5px" font-weight="bold" font-family="'Helvetica Neue', Helvetica, Arial-Unicode, Arial, Sans-serif">Created by Dyah Kusumaningrum</text><text x="0" y="867" fill="#000000" font-size="5px" font-weight="bold" font-family="'Helvetica Neue', Helvetica, Arial-Unicode, Arial, Sans-serif">from the Noun Project</text></svg>