<svg xmlns="http://www.w3.org/2000/svg" xmlns:xlink="http://www.w3.org/1999/xlink" version="1.1" x="0px" y="0px" viewBox="0 0 64 80" enable-background="new 0 0 64 64" xml:space="preserve"><g display="none"><g display="inline"><rect x="9" y="3" fill="#000000" width="46" height="58"/><path d="M55,62H9c-0.552,0-1-0.448-1-1V3c0-0.552,0.448-1,1-1h46c0.552,0,1,0.448,1,1v15h-2V4H10v56h44V24h2v37    C56,61.552,55.552,62,55,62z"/><rect x="54" y="20" width="2" height="2"/><g><circle fill="#000000" cx="32" cy="24" r="14"/><path d="M32,39c-8.271,0-15-6.729-15-15S23.729,9,32,9s15,6.729,15,15S40.271,39,32,39z M32,11c-7.168,0-13,5.832-13,13     s5.832,13,13,13s13-5.832,13-13S39.168,11,32,11z"/></g><rect x="41" y="44" width="4" height="2"/><rect x="37" y="44" width="2" height="2"/><rect x="19" y="44" width="16" height="2"/><rect x="19" y="50" width="26" height="2"/><path d="M32,20.368c-3.774,0-7.548-1.161-11.965-3.483l0.931-1.771c8.25,4.337,13.82,4.337,22.069,0l0.931,1.771    C39.548,19.207,35.774,20.368,32,20.368z"/><path d="M43.035,32.885c-8.251-4.337-13.819-4.337-22.069,0l-0.931-1.771c8.833-4.644,15.096-4.644,23.931,0L43.035,32.885z"/><path d="M32,38.963c-3.897,0-6-7.729-6-15s2.103-15,6-15s6,7.729,6,15S35.897,38.963,32,38.963z M32,10.963c-1.631,0-4,5.064-4,13    s2.369,13,4,13s4-5.064,4-13S33.631,10.963,32,10.963z"/></g></g><g display="none"><g display="inline"><path fill="#000000" d="M53,3H11C9.895,3,9,3.895,9,5v54c0,1.105,0.895,2,2,2h42c1.105,0,2-0.895,2-2V5C55,3.895,54.105,3,53,3z"/><circle fill="#000000" cx="32" cy="24" r="14"/><rect x="41" y="44" fill="#000000" width="4" height="2"/><rect x="37" y="44" fill="#000000" width="2" height="2"/><rect x="19" y="44" fill="#000000" width="16" height="2"/><rect x="19" y="50" fill="#000000" width="26" height="2"/><path fill="#000000" d="M38,23.963c0-1.469-0.076-2.94-0.225-4.361c2.052-0.522,4.185-1.318,6.47-2.383    c-0.329-0.592-0.707-1.152-1.115-1.687c-1.988,0.914-3.844,1.612-5.622,2.083c-0.483-3.005-1.321-5.625-2.504-7.284    C34.035,10.119,33.032,10,32,10s-2.035,0.119-3.003,0.331c-1.183,1.658-2.021,4.279-2.504,7.284    c-1.778-0.471-3.634-1.169-5.622-2.083c-0.408,0.536-0.786,1.095-1.115,1.687c2.284,1.065,4.417,1.861,6.47,2.383    C26.076,21.023,26,22.494,26,23.963c0,1.494,0.08,2.99,0.233,4.433c-2.055,0.522-4.191,1.318-6.478,2.385    c0.329,0.592,0.707,1.152,1.115,1.687c1.992-0.916,3.852-1.615,5.634-2.086c0.494,3.033,1.353,5.666,2.563,7.305    C30.014,37.889,30.993,38,32,38s1.986-0.111,2.933-0.313c1.21-1.639,2.069-4.271,2.563-7.304c1.782,0.471,3.641,1.17,5.634,2.086    c0.408-0.536,0.786-1.095,1.115-1.687c-2.287-1.067-4.423-1.863-6.478-2.385C37.92,26.953,38,25.457,38,23.963z M32,10.463    c1.195,0,2.782,2.831,3.548,7.58c-2.393,0.422-4.702,0.422-7.095,0C29.218,13.294,30.805,10.463,32,10.463z M32,37.463    c-1.189,0-2.765-2.803-3.535-7.508c2.384-0.419,4.686-0.419,7.071,0C34.765,34.66,33.189,37.463,32,37.463z M28.203,27.978    C28.076,26.736,28,25.398,28,23.963c0-1.408,0.073-2.72,0.196-3.943c1.281,0.22,2.544,0.344,3.804,0.344    c1.26,0,2.523-0.124,3.803-0.344C35.927,21.243,36,22.555,36,23.963c0,1.435-0.076,2.773-0.203,4.016    C33.24,27.539,30.76,27.539,28.203,27.978z"/></g></g><g><g><path d="M55,62H9c-0.552,0-1-0.448-1-1V3c0-0.552,0.448-1,1-1h46c0.552,0,1,0.448,1,1v15h-2V4H10v56h44V24h2v37    C56,61.552,55.552,62,55,62z"/><rect x="54" y="20" width="2" height="2"/><path d="M32,39c-8.271,0-15-6.729-15-15S23.729,9,32,9s15,6.729,15,15S40.271,39,32,39z M32,11c-7.168,0-13,5.832-13,13    s5.832,13,13,13s13-5.832,13-13S39.168,11,32,11z"/><rect x="41" y="44" width="4" height="2"/><rect x="37" y="44" width="2" height="2"/><rect x="19" y="44" width="16" height="2"/><rect x="19" y="50" width="26" height="2"/><path d="M32,20.368c-3.774,0-7.548-1.161-11.965-3.483l0.931-1.771c8.25,4.337,13.82,4.337,22.069,0l0.931,1.771    C39.548,19.207,35.774,20.368,32,20.368z"/><path d="M43.035,32.885c-8.251-4.337-13.819-4.337-22.069,0l-0.931-1.771c8.833-4.644,15.096-4.644,23.931,0L43.035,32.885z"/><path d="M32,38.963c-3.897,0-6-7.729-6-15s2.103-15,6-15s6,7.729,6,15S35.897,38.963,32,38.963z M32,10.963c-1.631,0-4,5.064-4,13    s2.369,13,4,13s4-5.064,4-13S33.631,10.963,32,10.963z"/></g></g><g display="none"><g display="inline"><polyline fill="none" stroke="#000000" stroke-width="2" stroke-linejoin="round" stroke-miterlimit="10" points="55,24 55,61     9,61 9,3 55,3 55,18   "/><line fill="none" stroke="#000000" stroke-width="2" stroke-linejoin="round" stroke-miterlimit="10" x1="55" y1="20" x2="55" y2="22"/><circle fill="none" stroke="#000000" stroke-width="2" stroke-miterlimit="10" cx="32" cy="24" r="14"/><line fill="none" stroke="#000000" stroke-width="2" stroke-miterlimit="10" x1="41" y1="45" x2="45" y2="45"/><line fill="none" stroke="#000000" stroke-width="2" stroke-miterlimit="10" x1="37" y1="45" x2="39" y2="45"/><line fill="none" stroke="#000000" stroke-width="2" stroke-miterlimit="10" x1="19" y1="45" x2="35" y2="45"/><line fill="none" stroke="#000000" stroke-width="2" stroke-miterlimit="10" x1="19" y1="51" x2="45" y2="51"/><path fill="none" stroke="#000000" stroke-width="2" stroke-miterlimit="10" d="M20.5,16c8.511,4.474,14.488,4.474,23,0"/><path fill="none" stroke="#000000" stroke-width="2" stroke-miterlimit="10" d="M20.5,32c8.511-4.474,14.488-4.474,23,0"/><ellipse fill="none" stroke="#000000" stroke-width="2" stroke-miterlimit="10" cx="32" cy="23.963" rx="5" ry="14"/></g></g><text x="0" y="79" fill="#000000" font-size="5px" font-weight="bold" font-family="'Helvetica Neue', Helvetica, Arial-Unicode, Arial, Sans-serif">Created by Petai Jantrapoon</text><text x="0" y="84" fill="#000000" font-size="5px" font-weight="bold" font-family="'Helvetica Neue', Helvetica, Arial-Unicode, Arial, Sans-serif">from the Noun Project</text></svg>