<svg xmlns="http://www.w3.org/2000/svg" xmlns:xlink="http://www.w3.org/1999/xlink" version="1.1" x="0px" y="0px" viewBox="0 0 512 640" enable-background="new 0 0 512 512" xml:space="preserve"><g><path d="M452.6,83.9H59.4C27.7,83.9,2,109.7,2,141.3v229.4c0,31.6,25.7,57.4,57.4,57.4h393.3c31.6,0,57.4-25.7,57.4-57.4V141.3   C510,109.7,484.3,83.9,452.6,83.9z M452.6,100.3c7.5,0,14.5,2.2,20.6,5.7L272.1,280.4c-9.2,8-23,8-32.2,0L38.8,106.1   c6.1-3.6,13-5.7,20.6-5.7H452.6z M18.4,370.7V141.3c0-9.1,3.1-17.4,8.1-24.2L185,254.5L25.1,393.1C20.9,386.6,18.4,379,18.4,370.7z    M59.4,411.7c-8.4,0-16.2-2.6-22.7-6.9l160.9-139.4l31.6,27.4c7.6,6.6,17.2,9.9,26.8,9.9s19.2-3.3,26.8-9.9l31.6-27.4l160.9,139.4   c-6.5,4.3-14.3,6.9-22.7,6.9H59.4z M493.6,370.7c0,8.3-2.5,16-6.7,22.4L327,254.5l158.6-137.4c5,6.8,8.1,15.1,8.1,24.2V370.7z"/><rect x="247.8" y="149.5" width="16.4" height="16.4"/><rect x="280.6" y="149.5" width="16.4" height="16.4"/><rect x="215" y="149.5" width="16.4" height="16.4"/></g><text x="0" y="527" fill="#000000" font-size="5px" font-weight="bold" font-family="'Helvetica Neue', Helvetica, Arial-Unicode, Arial, Sans-serif">Created by Icon Fair</text><text x="0" y="532" fill="#000000" font-size="5px" font-weight="bold" font-family="'Helvetica Neue', Helvetica, Arial-Unicode, Arial, Sans-serif">from the Noun Project</text></svg>