<svg xmlns="http://www.w3.org/2000/svg" xmlns:xlink="http://www.w3.org/1999/xlink" version="1.1" x="0px" y="0px" viewBox="0 0 100 125" enable-background="new 0 0 100 100" xml:space="preserve"><path fill="#000000" d="M69.3,0.5h-38c-5.5,0-10,4.5-10,10v78c0,5.5,4.5,10,10,10h38c5.5,0,10-4.5,10-10v-78  C79.3,5,74.8,0.5,69.3,0.5z M50,93.2c-2.7,0-5-2.2-5-5c0-2.7,2.2-5,5-5s5,2.2,5,5C55,91,52.7,93.2,50,93.2z M71.3,79.5h-42v-66h42  V79.5z"/><text x="0" y="115" fill="#000000" font-size="5px" font-weight="bold" font-family="'Helvetica Neue', Helvetica, Arial-Unicode, Arial, Sans-serif">Created by Joris Hoogendoorn</text><text x="0" y="120" fill="#000000" font-size="5px" font-weight="bold" font-family="'Helvetica Neue', Helvetica, Arial-Unicode, Arial, Sans-serif">from the Noun Project</text></svg>