<svg xmlns="http://www.w3.org/2000/svg" viewBox="0 0 100 125" x="0px" y="0px"><title>Noun_Project_100Icon_1px_grid_simplify_exp</title><g data-name="Layer 2"><path d="M83.23,74.84l0-.05q.59-.78,1.13-1.59h0A40.92,40.92,0,0,0,91,56.35l0-.12q.13-.88.23-1.77l0-.43q.07-.77.12-1.54c0-.17,0-.34,0-.51,0-.66.05-1.32.05-2s0-1.54-.07-2.3c0-.31,0-.62-.07-.93s-.07-.88-.12-1.31-.09-.77-.15-1.16-.1-.69-.15-1-.14-.84-.22-1.26-.13-.61-.19-.91-.19-.87-.3-1.29-.16-.57-.24-.86c-.16-.58-.33-1.16-.52-1.73s-.33-1-.51-1.51c-.11-.29-.23-.58-.34-.86s-.34-.86-.53-1.28-.25-.55-.37-.83q-.3-.64-.61-1.27c-.08-.15-.14-.31-.22-.46l-.05-.07a41.71,41.71,0,0,0-7.28-10,1.47,1.47,0,0,0-.1-.14c-.23-.23-.47-.43-.7-.65-.39-.37-.78-.74-1.18-1.1s-.67-.59-1-.88q-.89-.74-1.82-1.44l-.9-.64q-.86-.6-1.75-1.17l-.59-.38c-.79-.48-1.6-.93-2.43-1.35L68.72,13l-.1,0a41.18,41.18,0,0,0-8.7-3.22h0l-.27-.06q-1-.23-2-.42l-.51-.09q-.91-.16-1.84-.28l-.57-.07c-.61-.07-1.22-.12-1.83-.17l-.56,0c-.78,0-1.57-.07-2.36-.07h-.63a41.52,41.52,0,0,0-6.89.68h0l-.09,0q-.93.17-1.84.39l-.24.06q-.93.22-1.84.49l-.19.05q-1,.28-1.9.61l-.08,0a41.5,41.5,0,0,0-12.73,7.22l-.46.4c-.36.3-.71.61-1.06.93s-.51.48-.76.72l-.69.67c-.29.29-.57.6-.86.9l-.52.56c-.3.33-.59.67-.87,1l-.45.53c-.29.35-.56.71-.84,1.06l-.42.55q-.39.53-.77,1.08l-.43.63-.36.53a1.5,1.5,0,0,0-.07.14A41.47,41.47,0,0,0,82.7,75.51l.13-.13Zm5.23-23c0,.15,0,.31,0,.46,0,.48-.06,1-.11,1.44l0,.37A38.29,38.29,0,0,1,80.87,73a9.13,9.13,0,0,1-2.1-.09,3.57,3.57,0,0,1-2.25-2.58c.69-1.38.75-4.6.75-8.67,0-1,1-1.89,2.75-3.21a22.06,22.06,0,0,0,2.6-2.23,2.37,2.37,0,0,0,.76-2.41c-.42-1.36-1.93-1.69-3.4-2a13.09,13.09,0,0,1-1.49-.38,4.93,4.93,0,0,0-1.1-3.59A5.51,5.51,0,0,0,73.06,46c-.81,0-2.31,0-2.62-3.8A3.71,3.71,0,0,0,68,38.9a2.25,2.25,0,0,1-1.5-1.76c-.38-1.44.21-2,3.36-3.27l1.21-.49c.9-.39,3.79-.62,9.21-.08h0a21,21,0,0,0,4.09,0l.3,0,0,0c.29.59.55,1.19.81,1.79.13.3.24.61.36.91s.24.62.36.93.26.74.38,1.12.16.5.24.75c.12.4.24.81.35,1.22l.18.68q.16.63.29,1.27c0,.23.09.46.14.7.08.42.16.84.23,1.26,0,.27.08.53.11.8s.11.78.15,1.18.06.71.09,1.07.06.63.07.95c0,.69.06,1.37.06,2.07S88.48,51.22,88.45,51.82ZM64.85,18.43A10.71,10.71,0,0,1,68,16l.18.09c.41.22.81.45,1.21.69q.83.49,1.63,1l.51.33c.41.28.81.57,1.2.86l.37.27q.63.48,1.24,1l.2.17c.29.24.58.5.87.75A2.28,2.28,0,0,0,74,22.36,3.48,3.48,0,0,1,71.29,24a19.75,19.75,0,0,0-3.36.36,9.81,9.81,0,0,1-2.68.24,4.28,4.28,0,0,1-2.79-2c0-.2,0-1.11,2.38-4.23ZM50.59,11.52l.83,0,.74,0,1,.08q1.89.16,3.76.5l.4.07a28.36,28.36,0,0,1-4.12,4.54c-.45.4-.71.36-.81.35-.55-.07-1.3-.75-2-1.82C50.29,15.07,50.09,14,50.59,11.52Zm-8.22,9c1.75,2.12,2.5,4.4,2.16,4.9s-1.59,2.06-3.12,2.06a6.31,6.31,0,0,1-2-.67c-1.16-.53-2.93-1.33-4,.12a4.8,4.8,0,0,0-.61,2.36,6.05,6.05,0,0,1-.4,2,12.27,12.27,0,0,1-2.68-.18c-2.7-.34-6.05-.77-6.77,1.79s1.34,4.57,2.33,5.51c.13.12.24.22.3.29.95,1.18,3.42,2.56,7.29,2.56,1.07,0,2-.07,2.7-.13,1.92-.16,2.19-.14,2.79.69a5.72,5.72,0,0,1,.58,2.7c.09,1.45.25,3.87,2.58,4.15a8.32,8.32,0,0,0,3.79-.89c1.42-.56,3-1.2,4-.76,2.36,1.07,4.35,3.3,4.09,4.58-.08.41-.15.84-.21,1.28C55,55,54.68,56.27,52.7,56.93h0c-4.2,1.4-5.21,3.65-5.49,6.82a6,6,0,0,1-3.53,4.67C40.74,69.9,40.5,72,40.24,74.26l0,.39a8.81,8.81,0,0,0,.2,3,2.76,2.76,0,0,1,.11.84,2.28,2.28,0,0,1-1.19-.32,1.46,1.46,0,0,1-.78-.89,29.49,29.49,0,0,1-.07-3.69c.05-3.58,0-6-.67-7.36a17.34,17.34,0,0,1-.9-3.35A20.73,20.73,0,0,0,35.05,57a11,11,0,0,0-3.4-3c-1.41-1-2.86-1.94-2.86-2.89,0-3.13,0-7.86-4.27-10.71-3.4-2.26-6.91-4.61-6.91-9.65A13.09,13.09,0,0,1,17.74,29l.24-.37.31-.46c.25-.36.5-.72.76-1.07l.31-.41c.27-.35.54-.7.82-1l.35-.42c.27-.32.55-.65.83-1l.43-.47.8-.84.55-.54.74-.7.69-.62.65-.56.84-.69.54-.42,1-.74L28,18.4q.56-.39,1.14-.76l.34-.22q.62-.39,1.26-.76l.27-.16q.67-.38,1.36-.74l.23-.12q.71-.36,1.43-.69l.22-.1q.73-.33,1.47-.62l.22-.09q.74-.29,1.49-.55l.25-.08q.74-.25,1.5-.47l.26-.07q.76-.22,1.53-.4l.09,0v.05C41,13.15,40.36,18,42.37,20.48ZM50,88.5A38.48,38.48,0,0,1,15,33.93c1.2,4.49,4.83,6.92,7.9,9,2.86,1.91,2.86,5.38,2.86,8.16,0,2.54,2.22,4,4.17,5.37a9.29,9.29,0,0,1,2.51,2.11,19.16,19.16,0,0,1,1.48,5,17.39,17.39,0,0,0,1.19,4.13c.4.74.35,4.1.32,5.9a28.5,28.5,0,0,0,.11,4.23,5.08,5.08,0,0,0,4.84,3.72,2.93,2.93,0,0,0,2.5-1.18A3.84,3.84,0,0,0,43.33,77,6,6,0,0,1,43.18,75l0-.4c.23-2.05.31-2.74,1.8-3.49A8.73,8.73,0,0,0,50.2,64c.19-2.21.58-3.28,3.45-4.24h0c3.83-1.28,4.26-4.28,4.58-6.48.06-.38.11-.76.18-1.12.63-3.13-2.52-6.41-5.79-7.9-2.12-1-4.46,0-6.34.7a10.93,10.93,0,0,1-2.13.7A10.55,10.55,0,0,1,44,44.33a7.92,7.92,0,0,0-1.14-4.26c-1.61-2.23-3.39-2.09-5.46-1.92-.7.06-1.5.12-2.46.12-3.62,0-4.93-1.42-4.95-1.44a7.13,7.13,0,0,0-.56-.59c-.57-.54-1.59-1.52-1.55-2.35a14.11,14.11,0,0,1,3.53.18,10,10,0,0,0,4,.05c2.07-.69,2.29-3,2.44-4.58l0-.19.33.15a8,8,0,0,0,3.21.94A7,7,0,0,0,47,27.09c2.09-3-1.85-8-2.31-8.51-.84-1-.86-3.85-.63-5.45a9.92,9.92,0,0,0,.17-1.19c1.09-.16,2.19-.28,3.3-.35-.65,3.78.12,4.94.4,5.36,1.26,1.89,2.64,2.94,4.12,3.13a3.59,3.59,0,0,0,.47,0A4,4,0,0,0,55.23,19a28.75,28.75,0,0,0,5.21-6.06,38.21,38.21,0,0,1,4.39,1.52,10.22,10.22,0,0,0-2.38,2.16h0c-2.2,2.93-3.52,5.27-2.78,7.1a7.1,7.1,0,0,0,5.19,3.87,6.66,6.66,0,0,0,.88.06,16.23,16.23,0,0,0,2.7-.31A17.16,17.16,0,0,1,71.29,27a6.4,6.4,0,0,0,5.29-3.1,11.5,11.5,0,0,1,1.3-.43,38.72,38.72,0,0,1,5.2,6.86,18.15,18.15,0,0,1-2.52-.05h0c-5.39-.53-9-.42-10.7.32l-1.12.46c-2.51,1-6.3,2.5-5.15,6.83a5.14,5.14,0,0,0,3.06,3.67c.7.35.73.36.78.89.45,5.42,3.3,6.55,5.61,6.55a2.57,2.57,0,0,1,2,.73,2,2,0,0,1,.37,1.64c-.4,2.4,2.38,3,3.88,3.33l.4.09c-.49.43-1,.85-1.55,1.25-1.84,1.42-3.92,3-3.92,5.58,0,1.76,0,6.44-.43,7.33a3.84,3.84,0,0,0,.2,3.3,6.38,6.38,0,0,0,4,3.53l.44.09A38.41,38.41,0,0,1,50,88.5Z"/></g><text x="0" y="115" fill="#000000" font-size="5px" font-weight="bold" font-family="'Helvetica Neue', Helvetica, Arial-Unicode, Arial, Sans-serif">Created by Path Lord</text><text x="0" y="120" fill="#000000" font-size="5px" font-weight="bold" font-family="'Helvetica Neue', Helvetica, Arial-Unicode, Arial, Sans-serif">from the Noun Project</text></svg>